<?xml version="1.0" encoding="UTF-8" standalone="no"?>
<!DOCTYPE svg PUBLIC "-//W3C//DTD SVG 1.1//EN" "http://www.w3.org/Graphics/SVG/1.1/DTD/svg11.dtd">
<svg>
<metadata>
Created by FontForge 20120731 at Sun Jun 30 03:21:45 2019
 By www
Helvetica is a trademark of Allied Corporation.
</metadata>
<defs>
<font id="Helvetica-BlackOblique" horiz-adv-x="667">
  <font-face font-family="Helvetica" font-weight="900" font-style="oblique" font-stretch="normal" units-per-em="1000" panose-1="0 0 0 0 0 0 0 0 0 0" ascent="800" descent="-200" x-height="524" cap-height="720" bbox="-167 -232 1007 1013" underline-thickness="58" underline-position="-61" slope="-10" unicode-range="U+0020-FB02"/>
<missing-glyph horiz-adv-x="333"/>
    <glyph glyph-name=".notdef" horiz-adv-x="333"/>
    <glyph glyph-name="space" unicode=" " horiz-adv-x="333"/>
    <glyph glyph-name="exclam" unicode="!" horiz-adv-x="333" d="M108 264l-48 278v178h213v-178l-52 -278h-113zM267 0h-206v194h206v-194z"/>
    <glyph glyph-name="quotedbl" unicode="&quot;" horiz-adv-x="500" d="M401 449h-119v271h119v-271zM218 449h-119v271h119v-271z"/>
    <glyph glyph-name="numbersign" unicode="#" horiz-adv-x="660" d="M550 315v-93h-102l-32 -222h-89l31 222h-85l-32 -222h-88l31 222h-100v93h114l13 88h-99v93h111l30 209h87l-29 -209h86l29 209h90l-30 -209h90v-93h-103l-12 -88h89zM384 403h-86l-12 -88h85z"/>
    <glyph glyph-name="dollar" unicode="$" d="M286 455v130c-28 2 -75 -23 -75 -61c0 -48 43 -56 75 -69zM369 260v-146c41 0 87 24 87 66c0 44 -38 70 -87 80zM286 715v62h83v-62c131 -7 259 -61 257 -215h-173c-3 40 -33 80 -84 79v-139c125 -38 267 -81 267 -231c0 -164 -122 -219 -267 -224v-97h-83v97 c-144 5 -261 83 -263 239h181c0 -55 29 -93 82 -104v157c-117 36 -249 67 -249 218c0 155 121 201 249 220z"/>
    <glyph glyph-name="percent" unicode="%" horiz-adv-x="1000" d="M761 747l-424 -778h-101l424 778h101zM553 195c0 120 101 221 221 221c121 0 219 -101 219 -221c0 -121 -98 -218 -219 -218c-119 0 -221 97 -221 218zM688 196c0 -46 42 -84 86 -84c45 0 84 39 84 84s-38 85 -84 85s-86 -38 -86 -85zM227 302c-121 0 -221 99 -221 220 c0 120 101 219 221 219s220 -98 220 -219s-99 -220 -220 -220zM227 606c-45 0 -86 -38 -86 -84s40 -85 86 -85c45 0 85 40 85 85c0 46 -40 84 -85 84z"/>
    <glyph glyph-name="ampersand" unicode="&amp;" horiz-adv-x="889" d="M384 595c-35 0 -70 -14 -70 -54c0 -36 27 -61 61 -84c47 22 89 47 71 106c-10 22 -39 32 -62 32zM594 0l-57 61c-48 -41 -144 -80 -238 -80c-132 0 -254 61 -254 200c0 106 60 178 151 224c-37 39 -62 79 -62 135c0 135 131 180 245 180c133 0 240 -74 240 -190 c0 -86 -44 -142 -117 -182l62 -64c20 17 35 37 47 60h190c-33 -63 -72 -123 -121 -175l164 -169h-250zM416 188l-93 98c-39 -20 -78 -45 -78 -86c0 -43 29 -66 70 -66c23 0 60 14 80 26c29 17 34 14 21 28z"/>
    <glyph glyph-name="quoteright" unicode="’" horiz-adv-x="278" d="M42 359v81c29 5 49 15 61 31s19 38 19 66h-80v183h183v-158c5 -122 -85 -204 -183 -203z"/>
    <glyph glyph-name="parenleft" unicode="(" horiz-adv-x="389" d="M331 -178h-176c-53 102 -108 252 -108 455c0 183 61 325 109 443h178c-54 -142 -94 -293 -94 -446c0 -156 35 -308 91 -452z"/>
    <glyph glyph-name="parenright" unicode=")" horiz-adv-x="389" d="M58 720h176c53 -102 108 -252 108 -455c0 -183 -61 -325 -109 -443h-178c54 142 94 293 94 446c0 156 -35 308 -91 452z"/>
    <glyph glyph-name="asterisk" unicode="*" horiz-adv-x="556" d="M91 627l133 -46v139h108v-139l132 51l38 -103l-139 -47l95 -117l-91 -70l-87 124l-87 -124l-92 68l91 117l-138 37z"/>
    <glyph glyph-name="plus" unicode="+" horiz-adv-x="660" d="M272 314v191h116v-191h194v-116h-194v-198h-116v198h-194v116h194z"/>
    <glyph glyph-name="comma" unicode="," horiz-adv-x="333" d="M58 -176v87c31 4 54 14 70 29s25 36 27 60h-97v206h212v-174c0 -134 -82 -201 -212 -208z"/>
    <glyph glyph-name="hyphen" unicode="-" horiz-adv-x="333" d="M300 165h-268v182h268v-182z"/>
    <glyph glyph-name="period" unicode="." horiz-adv-x="333" d="M272 0h-212v206h212v-206z"/>
    <glyph glyph-name="slash" unicode="/" horiz-adv-x="278" d="M184 720h126l-216 -810h-126z"/>
    <glyph glyph-name="zero" unicode="0" d="M334 141c74 0 97 90 97 208c0 74 4 210 -99 210c-94 0 -96 -145 -96 -212c0 -123 19 -206 98 -206zM28 359c1 259 145 356 306 356c183 0 305 -121 305 -355c0 -201 -77 -375 -305 -375s-306 172 -306 374z"/>
    <glyph glyph-name="one" unicode="1" d="M469 715v-715h-208v411h-163v142c110 2 190 40 213 162h158z"/>
    <glyph glyph-name="two" unicode="2" d="M649 0h-593c-4 82 28 142 84 200c118 123 303 171 303 288c0 45 -43 71 -85 71c-80 0 -103 -67 -102 -135h-187c3 207 116 291 299 291c146 0 283 -64 283 -228c0 -124 -95 -175 -187 -232c-51 -32 -105 -59 -142 -85h327v-170z"/>
    <glyph glyph-name="three" unicode="3" d="M35 245h196c-1 -32 8 -58 25 -76s43 -28 75 -28c61 0 93 41 93 82c0 81 -80 78 -130 78v123c49 -4 124 6 124 72c0 46 -41 63 -82 63c-49 0 -85 -25 -91 -75h-188c7 162 138 231 285 231c167 0 271 -77 271 -197c0 -64 -25 -111 -82 -139c64 -25 101 -78 101 -147 c0 -164 -123 -247 -312 -247c-164 0 -288 85 -285 260z"/>
    <glyph glyph-name="four" unicode="4" d="M25 147v167l329 391h194v-403h88v-155h-88v-147h-198v147h-325zM350 517l-168 -215h168v215z"/>
    <glyph glyph-name="five" unicode="5" d="M54 304l70 401h452v-170h-306l-23 -106c44 32 93 38 146 38c135 0 240 -82 240 -223c0 -195 -155 -259 -316 -259c-154 0 -254 69 -294 199l209 21c0 -2 2 -5 2 -7c12 -37 52 -57 90 -57c61 0 101 41 101 93c0 58 -28 102 -91 102c-31 0 -68 -8 -84 -39z"/>
    <glyph glyph-name="six" unicode="6" d="M344 326c-71 -2 -98 -46 -98 -101c0 -51 44 -91 94 -91c61 0 92 38 92 98c0 56 -36 94 -88 94zM623 529l-194 -12c-11 39 -43 56 -84 56c-77 0 -109 -70 -108 -162c56 39 98 51 165 51c164 0 238 -127 238 -228c0 -172 -123 -249 -282 -249c-205 0 -331 111 -331 367 c0 217 112 363 308 363c132 0 258 -43 288 -186z"/>
    <glyph glyph-name="seven" unicode="7" d="M418 535h-362v170h567v-158c-127 -103 -225 -309 -232 -547h-216c22 236 122 408 243 535z"/>
    <glyph glyph-name="eight" unicode="8" d="M360 135c47 6 69 38 69 84c0 57 -39 91 -94 91c-58 0 -98 -30 -98 -92c0 -68 64 -94 123 -83zM332 423c47 0 88 25 88 75c0 48 -38 76 -86 76c-51 0 -91 -26 -90 -78c0 -52 41 -73 88 -73zM143 369c-55 30 -91 60 -91 147c0 136 137 199 289 199c160 0 271 -82 271 -195 c0 -68 -27 -120 -93 -146c75 -29 118 -82 118 -165c0 -142 -126 -224 -303 -224c-165 0 -305 69 -305 224c0 84 43 126 114 160z"/>
    <glyph glyph-name="nine" unicode="9" d="M321 375c71 2 98 46 98 101c0 51 -44 91 -94 91c-61 0 -92 -38 -92 -98c0 -56 36 -94 88 -94zM42 171l194 12c11 -39 43 -56 84 -56c77 0 109 70 108 162c-56 -39 -98 -51 -165 -51c-164 0 -238 127 -238 228c0 172 123 249 282 249c205 0 331 -111 331 -367 c0 -217 -112 -363 -308 -363c-132 0 -258 43 -288 186z"/>
    <glyph glyph-name="colon" unicode=":" horiz-adv-x="333" d="M272 0h-212v206h212v-206zM272 318h-212v206h212v-206z"/>
    <glyph glyph-name="semicolon" unicode=";" horiz-adv-x="333" d="M58 206h212v-174c0 -134 -82 -201 -212 -208v87c31 4 54 14 70 29s25 36 27 60h-97v206zM270 318h-212v206h212v-206z"/>
    <glyph glyph-name="less" unicode="&lt;" horiz-adv-x="660" d="M584 108v-128l-509 226v99l509 227v-128l-356 -150z"/>
    <glyph glyph-name="equal" unicode="=" horiz-adv-x="660" d="M582 412v-116h-504v116h504zM582 216v-116h-504v116h504z"/>
    <glyph glyph-name="greater" unicode="&gt;" horiz-adv-x="660" d="M74 108l356 146l-356 150v128l509 -227v-99l-509 -226v128z"/>
    <glyph glyph-name="question" unicode="?" horiz-adv-x="611" d="M387 269h-184c-15 234 169 163 170 262c0 42 -37 58 -74 58c-47 0 -65 -32 -65 -83h-207c8 160 136 233 284 233c154 0 270 -69 270 -204c0 -173 -213 -137 -194 -266zM192 194h206v-194h-206v194z"/>
    <glyph glyph-name="at" unicode="@" horiz-adv-x="740" d="M280 338c0 -47 27 -88 76 -88c62 0 102 54 102 111c0 49 -31 85 -80 85c-57 0 -98 -56 -98 -108zM487 493l10 51h95l-49 -292c-3 -19 -9 -36 12 -36c43 0 97 75 97 183c0 162 -115 250 -268 250c-168 0 -279 -123 -279 -289c0 -177 125 -289 296 -289c76 0 142 29 191 67 h99c-72 -99 -174 -157 -298 -157c-215 0 -388 160 -388 379c0 215 169 379 382 379c88 0 169 -27 235 -84c68 -57 112 -132 112 -223c0 -79 -22 -150 -77 -206c-39 -39 -117 -85 -173 -85c-33 0 -60 16 -58 51c-26 -28 -64 -47 -98 -47c-88 0 -168 79 -168 177 c0 118 80 230 204 230c51 0 93 -18 123 -59z"/>
    <glyph glyph-name="A" unicode="A" horiz-adv-x="778" d="M463 245l-76 258l-73 -258h149zM242 0h-231l258 720h240l258 -720h-235l-28 95h-235z"/>
    <glyph glyph-name="B" unicode="B" horiz-adv-x="778" d="M383 301h-75v-133h103c58 0 102 12 102 66c0 63 -55 67 -130 67zM391 552h-83v-120h98c47 0 81 21 81 63c0 56 -46 57 -96 57zM423 0h-351v720h344c162 0 291 -38 291 -181c0 -74 -48 -128 -94 -157c78 -20 120 -87 120 -165c0 -161 -123 -217 -310 -217z"/>
    <glyph glyph-name="C" unicode="C" horiz-adv-x="778" d="M743 445h-224c-7 75 -54 118 -128 118c-83 0 -133 -71 -133 -210c0 -101 22 -196 142 -196c76 0 112 53 121 122h227c-21 -186 -154 -298 -344 -298c-238 0 -382 146 -382 380c0 233 158 378 359 378c220 0 343 -109 362 -294z"/>
    <glyph glyph-name="D" unicode="D" horiz-adv-x="778" d="M301 552v-384h50c110 0 170 58 170 194c0 150 -49 190 -175 190h-45zM375 0h-310v720h316c232 0 376 -108 376 -345c0 -271 -151 -375 -382 -375z"/>
    <glyph glyph-name="E" unicode="E" horiz-adv-x="722" d="M677 0h-601v720h587v-168h-351v-103h297v-168h-297v-113h365v-168z"/>
    <glyph glyph-name="F" unicode="F" d="M310 0h-236v720h560v-168h-324v-131h258v-168h-258v-253z"/>
    <glyph glyph-name="G" unicode="G" horiz-adv-x="833" d="M766 396v-398h-152l-9 71c-39 -46 -104 -88 -217 -88c-184 0 -349 119 -349 370c0 230 144 388 377 388c173 0 312 -90 341 -267h-224c-17 59 -60 91 -121 91c-93 0 -137 -84 -137 -211c0 -102 32 -195 151 -195c48 0 109 33 121 83h-104v156h323z"/>
    <glyph glyph-name="H" unicode="H" horiz-adv-x="833" d="M305 0h-236v720h236v-243h223v243h236v-720h-236v279h-223v-279z"/>
    <glyph glyph-name="I" unicode="I" horiz-adv-x="389" d="M312 0h-236v720h236v-720z"/>
    <glyph glyph-name="J" unicode="J" d="M27 313h210c0 -75 0 -156 62 -156c36 0 60 30 60 88v475h236v-442c0 -190 -90 -297 -281 -297c-208 0 -306 116 -287 332z"/>
    <glyph glyph-name="K" unicode="K" horiz-adv-x="833" d="M75 0v720h236v-233l207 233h277l-263 -271l291 -449h-283l-173 287l-56 -59v-228h-236z"/>
    <glyph glyph-name="L" unicode="L" d="M636 0h-560v720h236v-552h324v-168z"/>
    <glyph glyph-name="M" unicode="M" horiz-adv-x="944" d="M272 0h-212v720h285l127 -449l127 449h285v-720h-212v220l3 112l12 130h-2l-131 -462h-164l-131 462h-2l10 -106l5 -112v-244z"/>
    <glyph glyph-name="N" unicode="N" horiz-adv-x="833" d="M290 720l257 -393l-9 164v229h226v-720h-221l-257 392l9 -164v-228h-226v720h221z"/>
    <glyph glyph-name="O" unicode="O" horiz-adv-x="833" d="M414 563c-107 0 -139 -108 -139 -199c0 -92 28 -207 141 -207c102 0 142 88 142 207c0 98 -40 202 -144 199zM416 739c257 0 378 -185 378 -375c0 -245 -165 -383 -378 -383c-226 0 -377 140 -377 385c0 226 153 373 377 373z"/>
    <glyph glyph-name="P" unicode="P" horiz-adv-x="722" d="M293 392h98c55 0 95 22 95 84c0 67 -76 76 -126 76h-67v-160zM293 0h-236v720h347c207 0 307 -95 307 -243c0 -155 -92 -253 -299 -253h-119v-224z"/>
    <glyph glyph-name="Q" unicode="Q" horiz-adv-x="833" d="M371 245l100 105l77 -78c7 25 10 52 10 92c0 123 -55 199 -144 199c-107 0 -139 -108 -139 -199c0 -92 28 -207 141 -207c13 0 25 3 36 7zM792 24l-99 -105l-98 99c-36 -16 -95 -37 -179 -37c-229 0 -377 143 -377 385c0 226 153 373 377 373c236 0 378 -166 378 -375 c0 -88 -26 -185 -84 -257z"/>
    <glyph glyph-name="R" unicode="R" horiz-adv-x="778" d="M297 552v-143h93c73 0 112 18 112 68c0 51 -40 75 -95 75h-110zM369 251h-72v-251h-236v720h340c240 0 319 -65 319 -205c0 -83 -37 -153 -121 -176c76 -28 122 -46 122 -191c0 -94 -3 -126 25 -126v-22h-239c-6 16 -12 62 -12 126c0 94 -16 125 -126 125z"/>
    <glyph glyph-name="S" unicode="S" horiz-adv-x="722" d="M669 511h-224c-4 25 -17 40 -34 49s-38 13 -61 13c-52 0 -75 -15 -75 -41c0 -108 414 -41 414 -303c0 -167 -139 -248 -337 -248c-190 0 -314 111 -319 241h226c5 -26 19 -45 39 -57c19 -12 44 -18 67 -18c59 0 98 19 98 53c0 109 -414 34 -414 309 c0 153 132 230 312 230c200 0 291 -102 308 -228z"/>
    <glyph glyph-name="T" unicode="T" horiz-adv-x="722" d="M31 531v189h660v-189h-212v-531h-236v531h-212z"/>
    <glyph glyph-name="U" unicode="U" horiz-adv-x="833" d="M70 314v406h236v-431c0 -71 14 -132 111 -132c85 0 110 54 110 132v431h236v-407c0 -231 -107 -332 -346 -332c-223 0 -347 85 -347 333z"/>
    <glyph glyph-name="V" unicode="V" horiz-adv-x="778" d="M268 0l-246 720h238l126 -479l131 479h238l-250 -720h-237z"/>
    <glyph glyph-name="W" unicode="W" horiz-adv-x="1000" d="M597 720l86 -445h2l81 445h228l-179 -720h-232l-83 418h-2l-82 -418h-232l-179 720h228l81 -445h2l86 445h195z"/>
    <glyph glyph-name="X" unicode="X" horiz-adv-x="778" d="M389 202l-116 -202h-265l255 374l-230 346h265l102 -184l103 184h265l-243 -346l245 -374h-265z"/>
    <glyph glyph-name="Y" unicode="Y" horiz-adv-x="778" d="M507 266v-266h-236v262l-268 458h264l124 -244l124 244h260z"/>
    <glyph glyph-name="Z" unicode="Z" horiz-adv-x="722" d="M685 0h-649v171l345 381h-331v168h621v-167l-350 -385h364v-168z"/>
    <glyph glyph-name="bracketleft" unicode="[" horiz-adv-x="389" d="M356 -178h-312v898h312v-148h-129v-602h129v-148z"/>
    <glyph glyph-name="backslash" unicode="\" horiz-adv-x="278" d="M-107 720h140l352 -720h-140z"/>
    <glyph glyph-name="bracketright" unicode="]" horiz-adv-x="389" d="M345 720v-898h-312v148h129v602h-129v148h312z"/>
    <glyph glyph-name="asciicircum" unicode="^" horiz-adv-x="660" d="M194 291l-104 47l180 377h120l180 -377l-104 -47l-136 279z"/>
    <glyph glyph-name="underscore" unicode="_" horiz-adv-x="500" d="M500 -119h-500v58h500v-58z"/>
    <glyph glyph-name="quoteleft" unicode="‘" horiz-adv-x="278" d="M236 739v-81c-28 -4 -48 -14 -61 -30s-19 -38 -19 -67h80v-183h-183v158c-4 123 86 205 183 203z"/>
    <glyph glyph-name="a" unicode="a" d="M634 0h-215l-10 56c-59 -55 -119 -71 -197 -71c-99 0 -187 49 -187 158c0 238 373 130 373 228c0 38 -46 43 -68 43c-29 0 -68 -6 -73 -51h-200c0 111 79 176 286 176c248 0 263 -92 263 -217v-245c0 -30 1 -45 28 -67v-10zM306 103c73 0 97 57 92 129 c-68 -33 -158 -17 -158 -85c0 -26 25 -44 66 -44z"/>
    <glyph glyph-name="b" unicode="b" d="M256 720v-249c41 48 89 68 151 68c134 0 228 -116 228 -274c0 -155 -66 -280 -237 -280c-87 0 -135 39 -161 89h-2v-74h-187v720h208zM339 135c68 0 88 66 88 123c0 56 -21 120 -88 120c-63 0 -88 -62 -88 -116c0 -56 20 -127 88 -127z"/>
    <glyph glyph-name="c" unicode="c" d="M618 324h-211c-1 23 -9 41 -22 54c-13 14 -31 21 -54 21c-78 0 -91 -81 -91 -143c0 -79 30 -131 91 -131c54 0 75 37 81 78h210c-18 -159 -146 -218 -291 -218c-169 0 -299 95 -299 272c0 179 126 282 299 282c140 0 272 -60 287 -215z"/>
    <glyph glyph-name="d" unicode="d" d="M619 0h-187v70c-49 -64 -94 -85 -161 -85c-158 0 -238 119 -238 267c0 174 97 287 222 287c66 0 112 -16 156 -68v249h208v-720zM323 135c72 0 95 61 95 122c0 58 -20 121 -89 121s-88 -66 -88 -124c0 -55 14 -119 82 -119z"/>
    <glyph glyph-name="e" unicode="e" d="M239 321h189c0 48 -43 91 -92 91c-62 0 -97 -35 -97 -91zM636 215h-397c0 -62 48 -103 103 -103c33 0 63 15 78 46h199c-36 -130 -168 -173 -290 -173c-168 0 -298 96 -298 272c0 172 129 282 297 282c194 0 311 -134 308 -324z"/>
    <glyph glyph-name="f" unicode="f" horiz-adv-x="389" d="M286 524h87v-120h-87v-404h-208v404h-69v120h70c0 185 72 215 205 215h89v-131c-68 0 -92 0 -87 -84z"/>
    <glyph glyph-name="g" unicode="g" d="M324 390c-63 1 -82 -51 -82 -119c0 -52 26 -101 82 -102c64 -3 88 52 88 108c0 58 -22 113 -88 113zM61 -27h209c0 -6 4 -15 13 -23s24 -13 45 -13c60 0 84 27 84 102v43c-30 -30 -75 -57 -150 -57c-145 0 -228 114 -228 248c0 129 62 266 234 266c63 0 122 -33 159 -84 v69h183v-422c0 -157 -18 -280 -276 -280c-185 0 -263 74 -273 151z"/>
    <glyph glyph-name="h" unicode="h" d="M48 0v720h208v-262c42 53 89 81 159 81c138 0 203 -81 203 -225v-314h-208v277c0 52 -14 98 -73 98c-64 0 -81 -41 -81 -108v-267h-208z"/>
    <glyph glyph-name="i" unicode="i" horiz-adv-x="333" d="M270 0h-208v524h208v-524zM62 591v148h208v-148h-208z"/>
    <glyph glyph-name="j" unicode="j" horiz-adv-x="333" d="M74 524h208v-474c0 -130 -13 -228 -207 -228c-29 0 -58 1 -95 3v148c82 0 94 5 94 77v474zM282 591h-208v148h208v-148z"/>
    <glyph glyph-name="k" unicode="k" d="M300 186l-39 -39v-147h-208v720h208v-356l133 160h243l-194 -203l219 -321h-250z"/>
    <glyph glyph-name="l" unicode="l" horiz-adv-x="333" d="M270 0h-208v720h208v-720z"/>
    <glyph glyph-name="m" unicode="m" horiz-adv-x="1000" d="M45 0v524h191v-78c26 40 91 93 166 93c94 0 146 -40 171 -96c45 63 104 96 181 96c153 0 201 -86 201 -229v-310h-208v267c0 77 -15 108 -70 108c-61 0 -73 -53 -73 -116v-259h-208v267c0 77 -15 108 -70 108c-61 0 -73 -53 -73 -116v-259h-208z"/>
    <glyph glyph-name="n" unicode="n" d="M48 0v524h190v-82c47 63 98 97 177 97c138 0 203 -81 203 -225v-314h-208v277c0 52 -14 98 -73 98c-64 0 -81 -41 -81 -108v-267h-208z"/>
    <glyph glyph-name="o" unicode="o" d="M335 399c-71 0 -92 -73 -92 -132c0 -99 37 -142 90 -142c56 0 90 43 90 142c0 77 -34 135 -88 132zM35 256c0 182 120 283 297 283c185 0 299 -109 299 -272c0 -192 -130 -282 -298 -282s-298 92 -298 271z"/>
    <glyph glyph-name="p" unicode="p" d="M44 524h187v-78h2c29 64 104 93 164 93c158 0 234 -129 234 -273c0 -206 -128 -281 -245 -281c-57 0 -99 23 -134 67v-230h-208v702zM333 144c55 0 90 47 90 119c0 83 -36 122 -91 122c-50 0 -84 -48 -84 -118c0 -73 31 -123 85 -123z"/>
    <glyph glyph-name="q" unicode="q" d="M413 263c0 55 -20 121 -86 121c-67 0 -92 -58 -92 -117c0 -62 17 -125 92 -125c61 0 86 70 86 121zM616 524v-702h-208v229c-43 -52 -86 -66 -154 -66c-118 0 -227 98 -227 284c0 138 81 270 231 270c81 0 138 -31 169 -93h2v78h187z"/>
    <glyph glyph-name="r" unicode="r" horiz-adv-x="444" d="M52 0v524h189v-106h2c29 82 80 121 161 121c9 0 18 -2 27 -3v-208c-14 2 -29 6 -43 6c-85 0 -128 -40 -128 -153v-181h-208z"/>
    <glyph glyph-name="s" unicode="s" horiz-adv-x="611" d="M33 163h198c0 -21 8 -37 22 -48c13 -10 31 -16 51 -16c32 0 66 10 66 47c0 84 -321 17 -321 220c0 134 139 173 248 173c114 0 248 -26 260 -165h-189c-2 17 -9 29 -20 38s-26 13 -42 13c-36 0 -59 -11 -59 -37c0 -73 331 -24 331 -220c0 -109 -90 -183 -282 -183 c-120 0 -252 37 -263 178z"/>
    <glyph glyph-name="t" unicode="t" horiz-adv-x="444" d="M394 149v-149c-273 -15 -306 4 -306 185v219h-74v120h77v163h205v-163h100v-120h-100v-190c0 -48 7 -65 65 -65h33z"/>
    <glyph glyph-name="u" unicode="u" d="M618 524v-524h-193v77c-52 -72 -103 -92 -189 -92c-114 0 -188 70 -188 220v319h208v-283c0 -72 25 -95 75 -95c60 0 79 45 79 126v252h208z"/>
    <glyph glyph-name="v" unicode="v" horiz-adv-x="611" d="M192 0l-182 524h208l92 -331l91 331h200l-177 -524h-232z"/>
    <glyph glyph-name="w" unicode="w" horiz-adv-x="944" d="M563 524l80 -324h2l81 324h197l-167 -524h-203l-81 307h-2l-73 -307h-203l-173 524h203l80 -324h2l81 324h176z"/>
    <glyph glyph-name="x" unicode="x" d="M27 0l188 274l-173 250h231l66 -131l70 131h228l-179 -249l181 -275h-232l-74 150l-76 -150h-230z"/>
    <glyph glyph-name="y" unicode="y" horiz-adv-x="611" d="M215 524l92 -323l91 323h200l-168 -489c-55 -162 -77 -213 -262 -213c-38 0 -76 4 -92 4v145c15 0 29 -1 43 -1c65 0 80 19 59 77l-172 477h209z"/>
    <glyph glyph-name="z" unicode="z" horiz-adv-x="556" d="M530 0h-504v139l237 233h-216v152h472v-145l-229 -227h240v-152z"/>
    <glyph glyph-name="braceleft" unicode="{" horiz-adv-x="389" d="M292 129v-186c0 -67 18 -103 75 -119v-2c-265 -18 -267 50 -267 161v176c0 70 -13 101 -75 118v2c57 15 75 49 75 117v200c0 124 28 154 267 143v-2c-59 -19 -75 -51 -75 -121v-201c0 -75 -14 -120 -82 -136v-2c64 -17 82 -51 82 -148z"/>
    <glyph glyph-name="bar" unicode="|" horiz-adv-x="278" d="M79 0v739h119v-739h-119z"/>
    <glyph glyph-name="braceright" unicode="}" horiz-adv-x="389" d="M289 165v-200c0 -124 -28 -154 -267 -143v2c59 19 75 51 75 121v201c0 75 14 120 82 136v2c-64 17 -82 51 -82 148v186c0 67 -18 103 -75 119v2c265 18 267 -50 267 -161v-176c0 -70 13 -101 75 -118v-2c-57 -15 -75 -49 -75 -117z"/>
    <glyph glyph-name="asciitilde" unicode="~" horiz-adv-x="660" d="M518 359l64 -73c-34 -54 -70 -117 -144 -117c-44 0 -82 16 -115 33s-63 33 -94 33c-47 0 -67 -48 -87 -82l-64 74c31 57 76 124 149 124c37 0 77 -16 115 -33c37 -16 72 -33 95 -33c42 0 61 44 81 74z"/>
    <glyph glyph-name="exclamdown" unicode="¡" horiz-adv-x="333" d="M273 -193h-213v169l51 284h112l50 -284v-169zM270 330h-207v194h207v-194z"/>
    <glyph glyph-name="cent" unicode="¢" d="M266 152l110 243c-14 6 -28 9 -43 9c-66 0 -97 -58 -97 -137c0 -39 7 -83 30 -115zM302 -15l-55 -132h-135l69 162c-95 43 -146 140 -146 243c0 202 140 281 302 281c23 0 47 -3 71 -6l51 122h133l-69 -160c61 -40 88 -97 98 -167h-200l-93 -208h21c47 9 74 36 80 85h199 c-20 -160 -127 -223 -326 -220z"/>
    <glyph glyph-name="sterling" unicode="£" d="M116 -1l-81 159c62 41 98 82 87 161h-89v90h60c-15 26 -34 73 -34 103c0 161 145 215 283 215c169 0 285 -71 289 -253h-190c-1 31 -8 55 -23 71s-37 25 -69 25c-46 0 -86 -32 -75 -81c7 -22 19 -44 30 -64l8 -16h104v-90h-92c-6 -41 -29 -83 -63 -109l-9 -7 c10 0 29 5 44 5c23 0 46 -3 80 -10s61 -20 93 -20c38 0 69 22 95 46l80 -167c-34 -34 -108 -69 -155 -69c-44 0 -80 9 -125 26c-55 20 -81 31 -121 31c-56 0 -81 -19 -127 -46z"/>
    <glyph glyph-name="fraction" unicode="⁄" horiz-adv-x="167" d="M-69 -15h-98l403 730h98z"/>
    <glyph glyph-name="yen" unicode="¥" d="M336 476l105 244h227l-122 -240h122v-95h-173l-49 -95h222v-95h-231v-195h-208v195h-230v95h222l-49 95h-173v95h123l-123 240h231z"/>
    <glyph glyph-name="florin" unicode="ƒ" d="M622 730l-21 -127c-19 5 -38 10 -57 10c-42 0 -54 -11 -61 -52l-18 -95h110v-116h-129l-44 -254c-7 -43 -17 -85 -29 -128c-12 -41 -35 -74 -67 -102c-26 -22 -38 -29 -70 -40c-12 -4 -56 -10 -69 -10c-40 0 -80 11 -119 19l22 127c14 -8 30 -9 46 -13c49 -2 75 33 83 79 l55 322h-107v116h126c20 110 33 228 154 271c27 9 52 10 80 10c39 0 77 -9 115 -17z"/>
    <glyph glyph-name="section" unicode="§" d="M259 260l140 -61c26 4 54 27 54 52s-14 37 -32 45l-154 69c-26 -8 -54 -27 -54 -54c0 -26 18 -38 46 -51zM557 548h-157c-2 45 -18 75 -67 75c-30 0 -67 -12 -67 -45c0 -103 327 -62 327 -296c0 -75 -40 -122 -98 -148c44 -34 70 -78 70 -134c0 -101 -104 -171 -225 -171 c-125 0 -231 55 -236 193h155c2 -22 8 -41 20 -55s30 -22 54 -22c43 0 74 9 74 48c0 102 -334 47 -334 293c0 72 47 124 103 144c-49 40 -68 88 -68 139c0 123 116 170 229 170c111 0 203 -54 217 -171c2 -6 3 -13 3 -20z"/>
    <glyph glyph-name="currency" unicode="¤" horiz-adv-x="660" d="M76 137l44 44c-24 43 -37 77 -37 128c0 49 12 90 37 131l-44 43l79 80l44 -44c38 23 85 38 129 38c47 0 94 -13 134 -38l44 44l77 -80l-44 -43c25 -40 38 -82 38 -130c0 -45 -12 -92 -38 -129l44 -44l-77 -79l-44 44c-40 -24 -83 -39 -129 -39c-48 0 -94 13 -134 39 l-44 -44zM330 187c70 0 123 58 123 123s-53 123 -123 123s-123 -58 -123 -123s53 -123 123 -123z"/>
    <glyph glyph-name="quotesingle" unicode="'" horiz-adv-x="278" d="M198 449h-119v271h119v-271z"/>
    <glyph glyph-name="quotedblleft" unicode="“" horiz-adv-x="500" d="M471 739v-81c-28 -4 -48 -14 -61 -30s-19 -38 -19 -67h80v-183h-183v158c-4 123 86 205 183 203zM224 739v-81c-28 -4 -48 -14 -61 -30s-19 -38 -19 -67h80v-183h-183v158c-4 123 86 205 183 203z"/>
    <glyph glyph-name="guillemotleft" unicode="«" d="M303 64l-183 118v146l183 120v-131l-101 -65l101 -59v-129zM547 64l-183 118v146l183 120v-131l-101 -65l101 -59v-129z"/>
    <glyph glyph-name="guilsinglleft" unicode="‹" horiz-adv-x="333" d="M258 64l-183 118v146l183 120v-131l-101 -65l101 -59v-129z"/>
    <glyph glyph-name="guilsinglright" unicode="›" horiz-adv-x="333" d="M75 448l183 -118v-146l-183 -120v131l101 65l-101 59v129z"/>
    <glyph glyph-name="fi" unicode="ﬁ" d="M414 524h208v-524h-208v524zM622 739v-148h-208v148h208zM78 404h-69v120h70c0 185 72 215 205 215h89v-131c-68 0 -92 0 -87 -84h87v-120h-87v-404h-208v404z"/>
    <glyph glyph-name="fl" unicode="ﬂ" d="M414 720h208v-720h-208v720zM286 524h87v-120h-87v-404h-208v404h-69v120h70c0 185 72 215 205 215h89v-131c-68 0 -92 0 -87 -84z"/>
    <glyph glyph-name="endash" unicode="–" horiz-adv-x="500" d="M500 187h-500v138h500v-138z"/>
    <glyph glyph-name="dagger" unicode="†" d="M232 514v206h202v-206h150v-158h-150v-534h-202v534h-150v158h150z"/>
    <glyph glyph-name="daggerdbl" unicode="‡" d="M82 540h150v180h192v-180h160v-158h-160v-218h160v-158h-160v-184h-192v184h-150v158h150v218h-150v158z"/>
    <glyph glyph-name="periodcentered" unicode="·" horiz-adv-x="333" d="M166 126c-71 0 -130 59 -130 130s59 130 130 130s130 -59 130 -130s-59 -130 -130 -130z"/>
    <glyph glyph-name="paragraph" unicode="¶" horiz-adv-x="850" d="M410 556v-734h-164v549c-115 0 -192 64 -192 171c0 144 106 178 245 178h408v-164h-50v-734h-164v734h-83z"/>
    <glyph glyph-name="bullet" unicode="•" horiz-adv-x="500" d="M418 361c0 -93 -76 -169 -169 -169s-168 76 -168 169s75 168 168 168s169 -75 169 -168z"/>
    <glyph glyph-name="quotesinglbase" unicode="‚" horiz-adv-x="278" d="M42 -178v81c29 5 49 15 61 31s19 38 19 66h-80v183h183v-158c5 -123 -85 -205 -183 -203z"/>
    <glyph glyph-name="quotedblbase" unicode="„" horiz-adv-x="500" d="M276 -178v81c29 5 49 15 61 31s19 38 19 66h-80v183h183v-158c5 -123 -85 -205 -183 -203zM29 -178v81c29 5 49 15 61 31s19 38 19 66h-80v183h183v-158c5 -123 -85 -205 -183 -203z"/>
    <glyph glyph-name="quotedblright" unicode="”" horiz-adv-x="500" d="M276 359v81c29 5 49 15 61 31s19 38 19 66h-80v183h183v-158c5 -122 -85 -204 -183 -203zM29 359v81c29 5 49 15 61 31s19 38 19 66h-80v183h183v-158c5 -122 -85 -204 -183 -203z"/>
    <glyph glyph-name="guillemotright" unicode="»" d="M364 448l183 -118v-146l-183 -120v131l101 65l-101 59v129zM120 448l183 -118v-146l-183 -120v131l101 65l-101 59v129z"/>
    <glyph glyph-name="ellipsis" unicode="…" horiz-adv-x="1000" d="M273 0h-212v206h212v-206zM939 0h-212v206h212v-206zM606 0h-212v206h212v-206z"/>
    <glyph glyph-name="perthousand" unicode="‰" horiz-adv-x="1000" d="M469 182c-24 0 -48 -22 -48 -47s24 -47 48 -47c25 0 47 23 47 47s-22 47 -47 47zM840 302c91 0 167 -76 167 -167c0 -93 -76 -167 -170 -167c-90 0 -165 78 -165 167c0 91 79 167 168 167zM840 182c-24 0 -48 -22 -48 -47s24 -47 48 -47c25 0 47 23 47 47s-22 47 -47 47z M161 751c91 0 167 -76 167 -167c0 -93 -76 -167 -170 -167c-90 0 -165 78 -165 167c0 91 79 167 168 167zM481 738h85l-420 -758h-85zM161 631c-24 0 -48 -22 -48 -47s24 -47 48 -47c25 0 47 23 47 47s-22 47 -47 47zM469 302c91 0 167 -76 167 -167 c0 -93 -76 -167 -170 -167c-90 0 -165 78 -165 167c0 91 79 167 168 167z"/>
    <glyph glyph-name="questiondown" unicode="¿" horiz-adv-x="611" d="M224 254h184c16 -233 -168 -162 -170 -262c0 -42 37 -58 74 -58c48 0 66 32 65 83h207c-8 -160 -136 -233 -284 -233c-153 0 -270 69 -270 204c0 174 214 138 194 266zM418 329h-206v195h206v-195z"/>
    <glyph glyph-name="grave" unicode="`" horiz-adv-x="333" d="M-36 738h208l100 -148h-137z"/>
    <glyph glyph-name="acute" unicode="´" horiz-adv-x="333" d="M66 590l100 148h209l-172 -148h-137z"/>
    <glyph glyph-name="circumflex" unicode="ˆ" horiz-adv-x="333" d="M-34 590l121 148h164l122 -148h-148l-56 76l-56 -76h-147z"/>
    <glyph glyph-name="tilde" unicode="˜" horiz-adv-x="333" d="M285 729h80c-10 -71 -45 -133 -125 -133c-33 0 -67 11 -97 24c-71 31 -81 0 -91 -30h-79c8 66 47 141 123 141c50 0 78 -20 125 -35c38 -12 61 13 64 33z"/>
    <glyph glyph-name="macron" unicode="¯" horiz-adv-x="333" d="M358 619h-377v90h377v-90z"/>
    <glyph glyph-name="breve" unicode="˘" horiz-adv-x="333" d="M-12 743h79c7 -56 61 -62 107 -62c62 0 92 19 99 62h78c-4 -103 -87 -153 -183 -153c-105 0 -172 42 -180 153z"/>
    <glyph glyph-name="dotaccent" unicode="˙" horiz-adv-x="333" d="M251 596h-169v130h169v-130z"/>
    <glyph glyph-name="dieresis" unicode="¨" horiz-adv-x="333" d="M199 596v130h169v-130h-169zM140 596h-169v130h169v-130z"/>
    <glyph glyph-name="ring" unicode="˚" horiz-adv-x="333" d="M167 593c-61 0 -113 50 -113 112s52 112 113 112s112 -51 112 -112s-51 -112 -112 -112zM167 757c-28 0 -53 -24 -53 -52s25 -52 53 -52s52 25 52 52s-24 52 -52 52z"/>
    <glyph glyph-name="cedilla" unicode="¸" horiz-adv-x="333" d="M28 -204l21 46c28 -7 55 -20 85 -20c14 0 28 2 40 11c33 24 -1 84 -70 51l-25 24l55 92h58l-39 -64c22 9 48 3 60 2c42 -4 85 -44 71 -92c-15 -53 -74 -78 -125 -78c-47 0 -87 12 -131 28z"/>
    <glyph glyph-name="hungarumlaut" unicode="˝" horiz-adv-x="333" d="M66 590l100 148h209l-172 -148h-137zM318 590l100 148h209l-172 -148h-137z"/>
    <glyph glyph-name="ogonek" unicode="˛" horiz-adv-x="333" d="M156 0h83v-2c-24 -11 -56 -35 -56 -65c0 -25 22 -49 47 -49c18 0 31 6 48 12v-86c-29 -10 -58 -15 -89 -15c-61 0 -116 31 -116 99c0 48 47 81 83 106z"/>
    <glyph glyph-name="caron" unicode="ˇ" horiz-adv-x="333" d="M225 738h148l-122 -148h-164l-121 148h147l56 -75z"/>
    <glyph glyph-name="emdash" unicode="—" horiz-adv-x="1000" d="M1000 187h-1000v138h1000v-138z"/>
    <glyph glyph-name="AE" unicode="Æ" horiz-adv-x="1000" d="M395 552l-86 -298h150v298h-64zM459 0v104h-194l-31 -104h-231l240 720h724v-168h-292v-103h241v-168h-241v-113h306v-168h-522z"/>
    <glyph glyph-name="ordfeminine" unicode="ª" horiz-adv-x="400" d="M12 262v65h386v-65h-386zM398 416h-139l-7 34c-38 -33 -77 -43 -128 -43c-64 0 -122 29 -122 95c0 143 243 78 243 137c0 22 -30 25 -44 25c-19 0 -44 -3 -48 -30h-130c0 66 52 105 186 105c161 0 171 -55 171 -130v-147c0 -21 5 -29 18 -37v-9zM185 478 c48 0 63 34 60 77c-30 -13 -108 -15 -108 -51c0 -15 21 -26 48 -26z"/>
    <glyph glyph-name="Lslash" unicode="Ł" d="M627 0h-551v315l-96 -50v135l96 50v270h236v-200l96 50v-135l-96 -50v-217h315v-168z"/>
    <glyph glyph-name="Oslash" unicode="Ø" horiz-adv-x="833" d="M290 254l205 282c-21 18 -47 27 -81 27c-107 0 -139 -108 -139 -199c0 -36 1 -75 15 -110zM546 456l-203 -277c19 -13 43 -22 73 -22c94 0 142 88 142 207c0 27 -1 61 -12 92zM750 733l-68 -92c65 -56 112 -168 112 -277c0 -246 -163 -383 -378 -383 c-86 0 -144 17 -188 41l-71 -98l-73 48l72 99c-71 62 -117 154 -117 295c0 226 153 373 377 373c70 0 136 -16 193 -46l66 91z"/>
    <glyph glyph-name="OE" unicode="Œ" horiz-adv-x="1000" d="M487 0v64c-42 -57 -113 -83 -182 -83c-183 0 -299 127 -299 387c0 251 146 371 302 371c70 0 141 -24 180 -85v66h480v-168h-292v-103h241v-168h-242v-113h306v-168h-494zM349 563c-111 0 -123 -139 -123 -222c0 -113 38 -184 119 -184c114 0 123 133 123 219 c0 100 -27 187 -119 187z"/>
    <glyph glyph-name="ordmasculine" unicode="º" horiz-adv-x="400" d="M201 655c-46 0 -60 -43 -60 -79c0 -59 25 -85 59 -85c36 0 59 26 59 85c0 46 -23 81 -58 79zM6 570c0 109 78 169 193 169c121 0 195 -65 195 -163c0 -115 -85 -169 -194 -169s-194 55 -194 163zM384 262h-368v65h368v-65z"/>
    <glyph glyph-name="ae" unicode="æ" horiz-adv-x="1000" d="M314 206c-29 -6 -68 -16 -68 -54c0 -33 29 -49 58 -49c81 0 108 47 102 131c-29 -15 -60 -21 -92 -28zM578 321h180c-1 49 -32 91 -89 91c-59 0 -86 -42 -91 -91zM284 317l51 6c34 5 73 16 73 45c0 40 -32 44 -78 44c-23 0 -64 -2 -70 -50h-195c6 121 126 177 254 177 c67 0 145 -12 197 -57c45 41 109 57 168 57c191 0 282 -161 272 -324h-377c-2 -58 28 -103 91 -103c53 0 72 18 82 44h189c-40 -129 -137 -171 -285 -171c-83 0 -143 34 -173 72c-72 -53 -157 -72 -226 -72c-131 0 -219 47 -219 161c0 136 134 158 246 171z"/>
    <glyph glyph-name="dotlessi" unicode="ı" horiz-adv-x="333" d="M270 0h-208v524h208v-524z"/>
    <glyph glyph-name="lslash" unicode="ł" horiz-adv-x="333" d="M270 370v-370h-208v290l-63 -60v130l63 60v300h208v-220l63 60v-130z"/>
    <glyph glyph-name="oslash" unicode="ø" d="M254 187l125 198c-13 10 -30 14 -46 14c-70 0 -90 -75 -90 -132c0 -25 3 -54 11 -80zM413 328l-120 -191c13 -8 26 -12 40 -12c58 0 90 48 90 142c0 21 -5 43 -10 61zM553 548l-37 -58c44 -27 115 -92 115 -223c0 -191 -131 -282 -298 -282c-44 0 -86 6 -124 20l-49 -77 l-51 28l47 74c-74 41 -121 117 -121 226c0 182 120 283 297 283c53 0 97 -10 130 -22l41 64z"/>
    <glyph glyph-name="oe" unicode="œ" horiz-adv-x="1000" d="M581 321h210c-1 54 -41 91 -103 91c-70 0 -104 -37 -107 -91zM960 215h-379c0 -58 30 -103 93 -103c43 0 77 16 82 44h189c-32 -126 -157 -171 -264 -171c-79 0 -132 34 -182 72c-33 -40 -98 -72 -189 -72c-175 0 -275 109 -275 272c0 196 130 282 276 282 c69 0 139 -21 190 -57c64 41 128 57 187 57c191 0 282 -161 272 -324zM332 399c-78 0 -89 -80 -89 -142c0 -65 9 -132 90 -132c77 0 84 77 84 136c0 82 -19 138 -85 138z"/>
    <glyph glyph-name="germandbls" unicode="ß" d="M311 338v114c50 -1 79 21 79 72c0 42 -21 75 -68 75c-67 0 -66 -50 -66 -103v-496h-208v489c0 181 106 250 276 250c150 0 261 -64 261 -187c0 -67 -29 -114 -89 -142c95 -36 131 -93 131 -194c0 -151 -108 -231 -232 -231c-29 0 -57 3 -86 9v129c84 -14 110 26 110 103 c0 75 -28 114 -108 112z"/>
    <glyph glyph-name="Aacute" unicode="Á" horiz-adv-x="778" d="M463 245l-76 258l-73 -258h149zM242 0h-231l258 720h240l258 -720h-235l-28 95h-235zM289 786l100 148h209l-172 -148h-137z"/>
    <glyph glyph-name="Acircumflex" unicode="Â" horiz-adv-x="778" d="M463 245l-76 258l-73 -258h149zM242 0h-231l258 720h240l258 -720h-235l-28 95h-235zM189 786l121 148h164l122 -148h-148l-56 76l-56 -76h-147z"/>
    <glyph glyph-name="Adieresis" unicode="Ä" horiz-adv-x="778" d="M463 245l-76 258l-73 -258h149zM242 0h-231l258 720h240l258 -720h-235l-28 95h-235zM422 792v130h169v-130h-169zM363 792h-169v130h169v-130z"/>
    <glyph glyph-name="Agrave" unicode="À" horiz-adv-x="778" d="M463 245l-76 258l-73 -258h149zM242 0h-231l258 720h240l258 -720h-235l-28 95h-235zM187 934h208l100 -148h-137z"/>
    <glyph glyph-name="Aring" unicode="Å" horiz-adv-x="778" d="M463 245l-76 258l-73 -258h149zM242 0h-231l258 720h240l258 -720h-235l-28 95h-235zM390 789c-61 0 -113 50 -113 112s52 112 113 112s112 -51 112 -112s-51 -112 -112 -112zM390 953c-28 0 -53 -24 -53 -52s25 -52 53 -52s52 25 52 52s-24 52 -52 52z"/>
    <glyph glyph-name="Atilde" unicode="Ã" horiz-adv-x="778" d="M463 245l-76 258l-73 -258h149zM242 0h-231l258 720h240l258 -720h-235l-28 95h-235zM508 925h80c-10 -71 -45 -133 -125 -133c-33 0 -67 11 -97 24c-71 31 -81 0 -91 -30h-79c8 66 47 141 123 141c50 0 78 -20 125 -35c38 -12 61 13 64 33z"/>
    <glyph glyph-name="Ccedilla" unicode="Ç" horiz-adv-x="778" d="M743 445h-224c-7 75 -54 118 -128 118c-83 0 -133 -71 -133 -210c0 -101 22 -196 142 -196c76 0 112 53 121 122h227c-21 -186 -154 -298 -344 -298c-238 0 -382 146 -382 380c0 233 158 378 359 378c220 0 343 -109 362 -294zM251 -204l21 46c28 -7 55 -20 85 -20 c14 0 28 2 40 11c33 24 -1 84 -70 51l-25 24l55 92h58l-39 -64c22 9 48 3 60 2c42 -4 85 -44 71 -92c-15 -53 -74 -78 -125 -78c-47 0 -87 12 -131 28z"/>
    <glyph glyph-name="Eacute" unicode="É" horiz-adv-x="722" d="M677 0h-601v720h587v-168h-351v-103h297v-168h-297v-113h365v-168zM261 786l100 148h209l-172 -148h-137z"/>
    <glyph glyph-name="Ecircumflex" unicode="Ê" horiz-adv-x="722" d="M677 0h-601v720h587v-168h-351v-103h297v-168h-297v-113h365v-168zM161 786l121 148h164l122 -148h-148l-56 76l-56 -76h-147z"/>
    <glyph glyph-name="Edieresis" unicode="Ë" horiz-adv-x="722" d="M677 0h-601v720h587v-168h-351v-103h297v-168h-297v-113h365v-168zM394 792v130h169v-130h-169zM335 792h-169v130h169v-130z"/>
    <glyph glyph-name="Egrave" unicode="È" horiz-adv-x="722" d="M677 0h-601v720h587v-168h-351v-103h297v-168h-297v-113h365v-168zM159 934h208l100 -148h-137z"/>
    <glyph glyph-name="Eth" unicode="Ð" horiz-adv-x="778" d="M301 552v-75h85v-198h-85v-111h50c110 0 170 58 170 194c0 150 -49 190 -175 190h-45zM65 477v243h316c232 0 376 -108 376 -345c0 -271 -151 -375 -382 -375h-310v279h-65v198h65z"/>
    <glyph glyph-name="Iacute" unicode="Í" horiz-adv-x="389" d="M312 0h-236v720h236v-720zM94 786l100 148h209l-172 -148h-137z"/>
    <glyph glyph-name="Icircumflex" unicode="Î" horiz-adv-x="389" d="M312 0h-236v720h236v-720zM-6 786l121 148h164l122 -148h-148l-56 76l-56 -76h-147z"/>
    <glyph glyph-name="Idieresis" unicode="Ï" horiz-adv-x="389" d="M312 0h-236v720h236v-720zM227 792v130h169v-130h-169zM168 792h-169v130h169v-130z"/>
    <glyph glyph-name="Igrave" unicode="Ì" horiz-adv-x="389" d="M312 0h-236v720h236v-720zM-8 934h208l100 -148h-137z"/>
    <glyph glyph-name="Ntilde" unicode="Ñ" horiz-adv-x="833" d="M290 720l257 -393l-9 164v229h226v-720h-221l-257 392l9 -164v-228h-226v720h221zM535 925h80c-10 -71 -45 -133 -125 -133c-33 0 -67 11 -97 24c-71 31 -81 0 -91 -30h-79c8 66 47 141 123 141c50 0 78 -20 125 -35c38 -12 61 13 64 33z"/>
    <glyph glyph-name="Oacute" unicode="Ó" horiz-adv-x="833" d="M414 563c-107 0 -139 -108 -139 -199c0 -92 28 -207 141 -207c102 0 142 88 142 207c0 98 -40 202 -144 199zM416 739c257 0 378 -185 378 -375c0 -245 -165 -383 -378 -383c-226 0 -377 140 -377 385c0 226 153 373 377 373zM316 786l100 148h209l-172 -148h-137z"/>
    <glyph glyph-name="Ocircumflex" unicode="Ô" horiz-adv-x="833" d="M414 563c-107 0 -139 -108 -139 -199c0 -92 28 -207 141 -207c102 0 142 88 142 207c0 98 -40 202 -144 199zM416 739c257 0 378 -185 378 -375c0 -245 -165 -383 -378 -383c-226 0 -377 140 -377 385c0 226 153 373 377 373zM216 786l121 148h164l122 -148h-148l-56 76 l-56 -76h-147z"/>
    <glyph glyph-name="Odieresis" unicode="Ö" horiz-adv-x="833" d="M414 563c-107 0 -139 -108 -139 -199c0 -92 28 -207 141 -207c102 0 142 88 142 207c0 98 -40 202 -144 199zM416 739c257 0 378 -185 378 -375c0 -245 -165 -383 -378 -383c-226 0 -377 140 -377 385c0 226 153 373 377 373zM449 792v130h169v-130h-169zM390 792h-169 v130h169v-130z"/>
    <glyph glyph-name="Ograve" unicode="Ò" horiz-adv-x="833" d="M414 563c-107 0 -139 -108 -139 -199c0 -92 28 -207 141 -207c102 0 142 88 142 207c0 98 -40 202 -144 199zM416 739c257 0 378 -185 378 -375c0 -245 -165 -383 -378 -383c-226 0 -377 140 -377 385c0 226 153 373 377 373zM214 934h208l100 -148h-137z"/>
    <glyph glyph-name="Otilde" unicode="Õ" horiz-adv-x="833" d="M414 563c-107 0 -139 -108 -139 -199c0 -92 28 -207 141 -207c102 0 142 88 142 207c0 98 -40 202 -144 199zM416 739c257 0 378 -185 378 -375c0 -245 -165 -383 -378 -383c-226 0 -377 140 -377 385c0 226 153 373 377 373zM535 925h80c-10 -71 -45 -133 -125 -133 c-33 0 -67 11 -97 24c-71 31 -81 0 -91 -30h-79c8 66 47 141 123 141c50 0 78 -20 125 -35c38 -12 61 13 64 33z"/>
    <glyph glyph-name="Scaron" unicode="Š" horiz-adv-x="722" d="M669 511h-224c-4 25 -17 40 -34 49s-38 13 -61 13c-52 0 -75 -15 -75 -41c0 -108 414 -41 414 -303c0 -167 -139 -248 -337 -248c-190 0 -314 111 -319 241h226c5 -26 19 -45 39 -57c19 -12 44 -18 67 -18c59 0 98 19 98 53c0 109 -414 34 -414 309 c0 153 132 230 312 230c200 0 291 -102 308 -228zM420 934h148l-122 -148h-164l-121 148h147l56 -75z"/>
    <glyph glyph-name="Thorn" unicode="Þ" horiz-adv-x="722" d="M293 292h98c55 0 95 22 95 84c0 67 -76 76 -126 76h-67v-160zM293 0h-236v720h236v-100h111c207 0 307 -95 307 -243c0 -155 -92 -253 -299 -253h-119v-124z"/>
    <glyph glyph-name="Uacute" unicode="Ú" horiz-adv-x="833" d="M70 314v406h236v-431c0 -71 14 -132 111 -132c85 0 110 54 110 132v431h236v-407c0 -231 -107 -332 -346 -332c-223 0 -347 85 -347 333zM316 786l100 148h209l-172 -148h-137z"/>
    <glyph glyph-name="Ucircumflex" unicode="Û" horiz-adv-x="833" d="M70 314v406h236v-431c0 -71 14 -132 111 -132c85 0 110 54 110 132v431h236v-407c0 -231 -107 -332 -346 -332c-223 0 -347 85 -347 333zM216 786l121 148h164l122 -148h-148l-56 76l-56 -76h-147z"/>
    <glyph glyph-name="Udieresis" unicode="Ü" horiz-adv-x="833" d="M70 314v406h236v-431c0 -71 14 -132 111 -132c85 0 110 54 110 132v431h236v-407c0 -231 -107 -332 -346 -332c-223 0 -347 85 -347 333zM449 792v130h169v-130h-169zM390 792h-169v130h169v-130z"/>
    <glyph glyph-name="Ugrave" unicode="Ù" horiz-adv-x="833" d="M70 314v406h236v-431c0 -71 14 -132 111 -132c85 0 110 54 110 132v431h236v-407c0 -231 -107 -332 -346 -332c-223 0 -347 85 -347 333zM214 934h208l100 -148h-137z"/>
    <glyph glyph-name="Yacute" unicode="Ý" horiz-adv-x="778" d="M507 266v-266h-236v262l-268 458h264l124 -244l124 244h260zM289 786l100 148h209l-172 -148h-137z"/>
    <glyph glyph-name="Ydieresis" unicode="Ÿ" horiz-adv-x="778" d="M507 266v-266h-236v262l-268 458h264l124 -244l124 244h260zM422 792v130h169v-130h-169zM363 792h-169v130h169v-130z"/>
    <glyph glyph-name="Zcaron" unicode="Ž" horiz-adv-x="722" d="M685 0h-649v171l345 381h-331v168h621v-167l-350 -385h364v-168zM420 934h148l-122 -148h-164l-121 148h147l56 -75z"/>
    <glyph glyph-name="aacute" unicode="á" d="M634 0h-215l-10 56c-59 -55 -119 -71 -197 -71c-99 0 -187 49 -187 158c0 238 373 130 373 228c0 38 -46 43 -68 43c-29 0 -68 -6 -73 -51h-200c0 111 79 176 286 176c248 0 263 -92 263 -217v-245c0 -30 1 -45 28 -67v-10zM306 103c73 0 97 57 92 129 c-68 -33 -158 -17 -158 -85c0 -26 25 -44 66 -44zM233 590l100 148h209l-172 -148h-137z"/>
    <glyph glyph-name="acircumflex" unicode="â" d="M634 0h-215l-10 56c-59 -55 -119 -71 -197 -71c-99 0 -187 49 -187 158c0 238 373 130 373 228c0 38 -46 43 -68 43c-29 0 -68 -6 -73 -51h-200c0 111 79 176 286 176c248 0 263 -92 263 -217v-245c0 -30 1 -45 28 -67v-10zM306 103c73 0 97 57 92 129 c-68 -33 -158 -17 -158 -85c0 -26 25 -44 66 -44zM133 590l121 148h164l122 -148h-148l-56 76l-56 -76h-147z"/>
    <glyph glyph-name="adieresis" unicode="ä" d="M634 0h-215l-10 56c-59 -55 -119 -71 -197 -71c-99 0 -187 49 -187 158c0 238 373 130 373 228c0 38 -46 43 -68 43c-29 0 -68 -6 -73 -51h-200c0 111 79 176 286 176c248 0 263 -92 263 -217v-245c0 -30 1 -45 28 -67v-10zM306 103c73 0 97 57 92 129 c-68 -33 -158 -17 -158 -85c0 -26 25 -44 66 -44zM366 596v130h169v-130h-169zM307 596h-169v130h169v-130z"/>
    <glyph glyph-name="agrave" unicode="à" d="M634 0h-215l-10 56c-59 -55 -119 -71 -197 -71c-99 0 -187 49 -187 158c0 238 373 130 373 228c0 38 -46 43 -68 43c-29 0 -68 -6 -73 -51h-200c0 111 79 176 286 176c248 0 263 -92 263 -217v-245c0 -30 1 -45 28 -67v-10zM306 103c73 0 97 57 92 129 c-68 -33 -158 -17 -158 -85c0 -26 25 -44 66 -44zM131 738h208l100 -148h-137z"/>
    <glyph glyph-name="aring" unicode="å" d="M634 0h-215l-10 56c-59 -55 -119 -71 -197 -71c-99 0 -187 49 -187 158c0 238 373 130 373 228c0 38 -46 43 -68 43c-29 0 -68 -6 -73 -51h-200c0 111 79 176 286 176c248 0 263 -92 263 -217v-245c0 -30 1 -45 28 -67v-10zM306 103c73 0 97 57 92 129 c-68 -33 -158 -17 -158 -85c0 -26 25 -44 66 -44zM334 593c-61 0 -113 50 -113 112s52 112 113 112s112 -51 112 -112s-51 -112 -112 -112zM334 757c-28 0 -53 -24 -53 -52s25 -52 53 -52s52 25 52 52s-24 52 -52 52z"/>
    <glyph glyph-name="atilde" unicode="ã" d="M634 0h-215l-10 56c-59 -55 -119 -71 -197 -71c-99 0 -187 49 -187 158c0 238 373 130 373 228c0 38 -46 43 -68 43c-29 0 -68 -6 -73 -51h-200c0 111 79 176 286 176c248 0 263 -92 263 -217v-245c0 -30 1 -45 28 -67v-10zM306 103c73 0 97 57 92 129 c-68 -33 -158 -17 -158 -85c0 -26 25 -44 66 -44zM452 729h80c-10 -71 -45 -133 -125 -133c-33 0 -67 11 -97 24c-71 31 -81 0 -91 -30h-79c8 66 47 141 123 141c50 0 78 -20 125 -35c38 -12 61 13 64 33z"/>
    <glyph glyph-name="brokenbar" unicode="¦" horiz-adv-x="278" d="M198 296v-296h-119v296h119zM79 443v296h119v-296h-119z"/>
    <glyph glyph-name="ccedilla" unicode="ç" d="M618 324h-211c-1 23 -9 41 -22 54c-13 14 -31 21 -54 21c-78 0 -91 -81 -91 -143c0 -79 30 -131 91 -131c54 0 75 37 81 78h210c-18 -159 -146 -218 -291 -218c-169 0 -299 95 -299 272c0 179 126 282 299 282c140 0 272 -60 287 -215zM195 -204l21 46 c28 -7 55 -20 85 -20c14 0 28 2 40 11c33 24 -1 84 -70 51l-25 24l55 92h58l-39 -64c22 9 48 3 60 2c42 -4 85 -44 71 -92c-15 -53 -74 -78 -125 -78c-47 0 -87 12 -131 28z"/>
    <glyph glyph-name="copyright" unicode="©" horiz-adv-x="800" d="M400 -19c-211 0 -379 169 -379 379s168 379 379 379c210 0 379 -169 379 -379s-169 -379 -379 -379zM400 71c162 0 279 120 279 289s-117 289 -279 289c-165 0 -279 -120 -279 -289s114 -289 279 -289zM593 439h-86c-8 46 -47 69 -94 69c-75 0 -112 -67 -112 -143 c0 -72 42 -147 115 -147c45 0 88 28 91 74h86c-11 -92 -89 -147 -177 -147c-127 0 -210 96 -210 218c0 126 79 219 208 219c91 0 163 -54 179 -143z"/>
    <glyph glyph-name="degree" unicode="°" horiz-adv-x="400" d="M350 565c0 -83 -68 -150 -150 -150c-83 0 -150 67 -150 150c-1 82 67 150 150 150c82 0 150 -68 150 -150zM271 562c0 40 -32 74 -73 74c-40 0 -70 -34 -69 -74c1 -42 29 -68 70 -68c40 0 72 26 72 68z"/>
    <glyph glyph-name="divide" unicode="÷" horiz-adv-x="660" d="M582 198h-504v116h504v-116zM388 7h-116v116h116v-116zM388 389h-116v116h116v-116z"/>
    <glyph glyph-name="eacute" unicode="é" d="M239 321h189c0 48 -43 91 -92 91c-62 0 -97 -35 -97 -91zM636 215h-397c0 -62 48 -103 103 -103c33 0 63 15 78 46h199c-36 -130 -168 -173 -290 -173c-168 0 -298 96 -298 272c0 172 129 282 297 282c194 0 311 -134 308 -324zM233 590l100 148h209l-172 -148h-137z"/>
    <glyph glyph-name="ecircumflex" unicode="ê" d="M239 321h189c0 48 -43 91 -92 91c-62 0 -97 -35 -97 -91zM636 215h-397c0 -62 48 -103 103 -103c33 0 63 15 78 46h199c-36 -130 -168 -173 -290 -173c-168 0 -298 96 -298 272c0 172 129 282 297 282c194 0 311 -134 308 -324zM133 590l121 148h164l122 -148h-148 l-56 76l-56 -76h-147z"/>
    <glyph glyph-name="edieresis" unicode="ë" d="M239 321h189c0 48 -43 91 -92 91c-62 0 -97 -35 -97 -91zM636 215h-397c0 -62 48 -103 103 -103c33 0 63 15 78 46h199c-36 -130 -168 -173 -290 -173c-168 0 -298 96 -298 272c0 172 129 282 297 282c194 0 311 -134 308 -324zM366 596v130h169v-130h-169zM307 596h-169 v130h169v-130z"/>
    <glyph glyph-name="egrave" unicode="è" d="M239 321h189c0 48 -43 91 -92 91c-62 0 -97 -35 -97 -91zM636 215h-397c0 -62 48 -103 103 -103c33 0 63 15 78 46h199c-36 -130 -168 -173 -290 -173c-168 0 -298 96 -298 272c0 172 129 282 297 282c194 0 311 -134 308 -324zM131 738h208l100 -148h-137z"/>
    <glyph glyph-name="eth" unicode="ð" d="M335 399c-71 0 -92 -73 -92 -132c0 -99 37 -142 90 -142c56 0 90 43 90 142c0 77 -34 135 -88 132zM366 689l100 45l35 -37l-103 -46c32 -29 61 -61 84 -91c74 -96 149 -166 149 -293c0 -192 -130 -282 -298 -282s-298 92 -298 271c0 190 147 286 265 286 c-10 16 -22 38 -34 50l-103 -44l-33 35l101 45c-17 22 -37 40 -62 59l123 52c24 -11 50 -31 74 -50z"/>
    <glyph glyph-name="iacute" unicode="í" horiz-adv-x="333" d="M270 0h-208v524h208v-524zM66 590l100 148h209l-172 -148h-137z"/>
    <glyph glyph-name="icircumflex" unicode="î" horiz-adv-x="333" d="M270 0h-208v524h208v-524zM-34 590l121 148h164l122 -148h-148l-56 76l-56 -76h-147z"/>
    <glyph glyph-name="idieresis" unicode="ï" horiz-adv-x="333" d="M270 0h-208v524h208v-524zM199 596v130h169v-130h-169zM140 596h-169v130h169v-130z"/>
    <glyph glyph-name="igrave" unicode="ì" horiz-adv-x="333" d="M270 0h-208v524h208v-524zM-36 738h208l100 -148h-137z"/>
    <glyph glyph-name="logicalnot" unicode="¬" horiz-adv-x="660" d="M466 120v176h-388v116h504v-292h-116z"/>
    <glyph glyph-name="minus" unicode="−" horiz-adv-x="660" d="M78 198v116h504v-116h-504z"/>
    <glyph glyph-name="mu" unicode="µ" d="M618 0h-193v77c-52 -72 -103 -92 -169 -89v-166h-208v702h208v-283c0 -72 25 -95 75 -95c60 0 79 45 79 126v252h208v-524z"/>
    <glyph glyph-name="multiply" unicode="×" horiz-adv-x="660" d="M330 172l-170 -169l-81 80l170 170l-170 170l81 82l170 -170l169 170l82 -82l-170 -169l170 -170l-82 -81z"/>
    <glyph glyph-name="ntilde" unicode="ñ" d="M48 0v524h190v-82c47 63 98 97 177 97c138 0 203 -81 203 -225v-314h-208v277c0 52 -14 98 -73 98c-64 0 -81 -41 -81 -108v-267h-208zM452 729h80c-10 -71 -45 -133 -125 -133c-33 0 -67 11 -97 24c-71 31 -81 0 -91 -30h-79c8 66 47 141 123 141c50 0 78 -20 125 -35 c38 -12 61 13 64 33z"/>
    <glyph glyph-name="oacute" unicode="ó" d="M335 399c-71 0 -92 -73 -92 -132c0 -99 37 -142 90 -142c56 0 90 43 90 142c0 77 -34 135 -88 132zM35 256c0 182 120 283 297 283c185 0 299 -109 299 -272c0 -192 -130 -282 -298 -282s-298 92 -298 271zM233 590l100 148h209l-172 -148h-137z"/>
    <glyph glyph-name="ocircumflex" unicode="ô" d="M335 399c-71 0 -92 -73 -92 -132c0 -99 37 -142 90 -142c56 0 90 43 90 142c0 77 -34 135 -88 132zM35 256c0 182 120 283 297 283c185 0 299 -109 299 -272c0 -192 -130 -282 -298 -282s-298 92 -298 271zM133 590l121 148h164l122 -148h-148l-56 76l-56 -76h-147z"/>
    <glyph glyph-name="odieresis" unicode="ö" d="M335 399c-71 0 -92 -73 -92 -132c0 -99 37 -142 90 -142c56 0 90 43 90 142c0 77 -34 135 -88 132zM35 256c0 182 120 283 297 283c185 0 299 -109 299 -272c0 -192 -130 -282 -298 -282s-298 92 -298 271zM366 596v130h169v-130h-169zM307 596h-169v130h169v-130z"/>
    <glyph glyph-name="ograve" unicode="ò" d="M335 399c-71 0 -92 -73 -92 -132c0 -99 37 -142 90 -142c56 0 90 43 90 142c0 77 -34 135 -88 132zM35 256c0 182 120 283 297 283c185 0 299 -109 299 -272c0 -192 -130 -282 -298 -282s-298 92 -298 271zM131 738h208l100 -148h-137z"/>
    <glyph glyph-name="onehalf" unicode="½" horiz-adv-x="1000" d="M281 739v-429h-135v247h-106v85c71 1 123 24 138 97h103zM746 102h213v-102h-386c-2 49 18 85 55 120c77 74 197 103 197 173c0 27 -28 42 -55 42c-52 0 -67 -40 -67 -81h-121c2 125 75 175 194 175c95 0 184 -38 184 -137c0 -74 -62 -105 -122 -139 c-33 -19 -68 -35 -92 -51zM291 -15h-98l403 730h98z"/>
    <glyph glyph-name="onequarter" unicode="¼" horiz-adv-x="1000" d="M281 739v-429h-135v247h-106v85c71 1 123 24 138 97h103zM563 88v100l214 235h126v-242h57v-93h-57v-88h-129v88h-211zM774 310l-109 -129h109v129zM331 -15h-98l403 730h98z"/>
    <glyph glyph-name="onesuperior" unicode="¹" horiz-adv-x="400" d="M321 739v-429h-135v247h-106v85c71 1 123 24 138 97h103z"/>
    <glyph glyph-name="otilde" unicode="õ" d="M335 399c-71 0 -92 -73 -92 -132c0 -99 37 -142 90 -142c56 0 90 43 90 142c0 77 -34 135 -88 132zM35 256c0 182 120 283 297 283c185 0 299 -109 299 -272c0 -192 -130 -282 -298 -282s-298 92 -298 271zM452 729h80c-10 -71 -45 -133 -125 -133c-33 0 -67 11 -97 24 c-71 31 -81 0 -91 -30h-79c8 66 47 141 123 141c50 0 78 -20 125 -35c38 -12 61 13 64 33z"/>
    <glyph glyph-name="plusminus" unicode="±" horiz-adv-x="660" d="M272 442v161h116v-161h194v-116h-194v-168h-116v168h-194v116h194zM78 0v116h504v-116h-504z"/>
    <glyph glyph-name="registered" unicode="®" horiz-adv-x="800" d="M400 -19c-211 0 -379 170 -379 379s168 379 379 379c209 0 379 -170 379 -379s-170 -379 -379 -379zM400 71c162 0 279 120 279 289s-117 289 -279 289c-165 0 -279 -120 -279 -289s114 -289 279 -289zM489 327l99 -173h-99l-91 173h-68v-173h-86v409h198 c107 0 159 -29 159 -125c0 -76 -40 -106 -112 -111zM330 388h113c46 -1 78 10 78 61c0 55 -59 51 -98 51h-93v-112z"/>
    <glyph glyph-name="scaron" unicode="š" horiz-adv-x="611" d="M33 163h198c0 -21 8 -37 22 -48c13 -10 31 -16 51 -16c32 0 66 10 66 47c0 84 -321 17 -321 220c0 134 139 173 248 173c114 0 248 -26 260 -165h-189c-2 17 -9 29 -20 38s-26 13 -42 13c-36 0 -59 -11 -59 -37c0 -73 331 -24 331 -220c0 -109 -90 -183 -282 -183 c-120 0 -252 37 -263 178zM364 738h148l-122 -148h-164l-121 148h147l56 -75z"/>
    <glyph glyph-name="thorn" unicode="þ" d="M44 739h187v-293h2c29 64 104 93 164 93c158 0 234 -129 234 -273c0 -206 -128 -281 -245 -281c-57 0 -99 23 -134 67v-230h-208v917zM333 144c55 0 90 47 90 119c0 83 -36 122 -91 122c-50 0 -84 -48 -84 -118c0 -73 31 -123 85 -123z"/>
    <glyph glyph-name="threequarters" unicode="¾" horiz-adv-x="1000" d="M563 88v100l214 235h126v-242h57v-93h-57v-88h-129v88h-211zM774 310l-109 -129h109v129zM371 -15h-98l403 730h98zM40 433h128c-1 -19 5 -35 16 -46c11 -10 28 -16 49 -16c40 0 60 24 60 49c0 48 -52 47 -84 47v73c32 -2 80 4 80 44c0 27 -26 37 -53 37 c-32 0 -55 -15 -59 -45h-122c4 98 89 139 185 139c109 0 176 -46 176 -118c0 -39 -16 -67 -53 -84c41 -15 66 -46 66 -88c0 -98 -80 -148 -203 -148c-107 0 -187 51 -186 156z"/>
    <glyph glyph-name="threesuperior" unicode="³" horiz-adv-x="400" d="M6 433h128c-1 -19 5 -35 16 -46c11 -10 28 -16 49 -16c40 0 60 24 60 49c0 48 -52 47 -84 47v73c32 -2 80 4 80 44c0 27 -26 37 -53 37c-32 0 -55 -15 -59 -45h-122c4 98 89 139 185 139c109 0 176 -46 176 -118c0 -39 -16 -67 -53 -84c41 -15 66 -46 66 -88 c0 -98 -80 -148 -203 -148c-107 0 -187 51 -186 156z"/>
    <glyph glyph-name="trademark" unicode="™" horiz-adv-x="950" d="M886 720v-404h-88v326h-2l-117 -326h-52l-117 326h-2v-326h-88v404h142l91 -239l91 239h142zM371 720v-78h-123v-326h-97v326h-123v78h343z"/>
    <glyph glyph-name="twosuperior" unicode="²" horiz-adv-x="400" d="M180 412h213v-102h-386c-2 49 18 85 55 120c77 74 197 103 197 173c0 27 -28 42 -55 42c-52 0 -67 -40 -67 -81h-121c2 125 75 175 194 175c95 0 184 -38 184 -137c0 -74 -62 -105 -122 -139c-33 -19 -68 -35 -92 -51z"/>
    <glyph glyph-name="uacute" unicode="ú" d="M618 524v-524h-193v77c-52 -72 -103 -92 -189 -92c-114 0 -188 70 -188 220v319h208v-283c0 -72 25 -95 75 -95c60 0 79 45 79 126v252h208zM233 590l100 148h209l-172 -148h-137z"/>
    <glyph glyph-name="ucircumflex" unicode="û" d="M618 524v-524h-193v77c-52 -72 -103 -92 -189 -92c-114 0 -188 70 -188 220v319h208v-283c0 -72 25 -95 75 -95c60 0 79 45 79 126v252h208zM133 590l121 148h164l122 -148h-148l-56 76l-56 -76h-147z"/>
    <glyph glyph-name="udieresis" unicode="ü" d="M618 524v-524h-193v77c-52 -72 -103 -92 -189 -92c-114 0 -188 70 -188 220v319h208v-283c0 -72 25 -95 75 -95c60 0 79 45 79 126v252h208zM366 596v130h169v-130h-169zM307 596h-169v130h169v-130z"/>
    <glyph glyph-name="ugrave" unicode="ù" d="M618 524v-524h-193v77c-52 -72 -103 -92 -189 -92c-114 0 -188 70 -188 220v319h208v-283c0 -72 25 -95 75 -95c60 0 79 45 79 126v252h208zM131 738h208l100 -148h-137z"/>
    <glyph glyph-name="yacute" unicode="ý" horiz-adv-x="611" d="M215 524l92 -323l91 323h200l-168 -489c-55 -162 -77 -213 -262 -213c-38 0 -76 4 -92 4v145c15 0 29 -1 43 -1c65 0 80 19 59 77l-172 477h209zM205 590l100 148h209l-172 -148h-137z"/>
    <glyph glyph-name="ydieresis" unicode="ÿ" horiz-adv-x="611" d="M215 524l92 -323l91 323h200l-168 -489c-55 -162 -77 -213 -262 -213c-38 0 -76 4 -92 4v145c15 0 29 -1 43 -1c65 0 80 19 59 77l-172 477h209zM338 596v130h169v-130h-169zM279 596h-169v130h169v-130z"/>
    <glyph glyph-name="zcaron" unicode="ž" horiz-adv-x="556" d="M530 0h-504v139l237 233h-216v152h472v-145l-229 -227h240v-152zM337 738h148l-122 -148h-164l-121 148h147l56 -75z"/>
    </font>
</defs>
</svg>
